<svg xmlns="http://www.w3.org/2000/svg" viewBox="0 0 919.37 919.37"><defs><style>.cls-1,.cls-2{fill:#fff;}.cls-1{opacity:0.1;isolation:isolate;}</style></defs><title>Asset 3</title><g id="Layer_2" data-name="Layer 2"><g id="Layer_1-2" data-name="Layer 1"><path class="cls-1" d="M459.68,0h0C713.56,0,919.37,205.81,919.37,459.68h0c0,253.88-205.81,459.69-459.69,459.69h0C205.81,919.37,0,713.56,0,459.68H0C0,205.81,205.81,0,459.68,0Z"/><path class="cls-2" d="M586.58,369.83a13.11,13.11,0,0,0-4.19-9.43c-2.62-2.1-5.76-3.67-8.91-3.67H365a13,13,0,0,0-9.43,3.67,12.61,12.61,0,0,0-3.66,9.43V578.27a12.61,12.61,0,0,0,3.66,9.43c2.1,2.62,5.24,3.66,9.43,3.66H477.12V500.24H446.74V465.15h30.38V439q0-22,12.57-34.57c8.38-7.85,19.37-12,33-12,10.48,0,19.9.52,27.23,1v31.94H531.06q-10.21,0-14.14,4.72-3.13,3.92-3.14,12.57v22.52h35.09l-4.71,35.09H513.78v91.12h59.7a12.61,12.61,0,0,0,9.43-3.66,15,15,0,0,0,3.67-9.43Z"/></g></g></svg>