<svg xmlns="http://www.w3.org/2000/svg" viewBox="0 0 925.63 925.63"><defs><style>.cls-1,.cls-2{fill:#fff;}.cls-1{opacity:0.1;isolation:isolate;}</style></defs><title>Asset 4</title><g id="Layer_2" data-name="Layer 2"><g id="Layer_1-2" data-name="Layer 1"><path class="cls-1" d="M462.82,0h0c255.6,0,462.81,207.21,462.81,462.82h0c0,255.6-207.21,462.81-462.81,462.81h0C207.21,925.63,0,718.42,0,462.82H0C0,207.21,207.21,0,462.82,0Z"/><path class="cls-2" d="M438.86,551.63l-1.06-1.06c-.52,0-1.06-.53-2.1-.53-2.12,0-2.64,1.06-2.64,2.11,0,1.59.52,2.11,2.64,2.11S438.86,553.21,438.86,551.63Zm-16.35-2.11c0-1.06,1.06-1.58,3.16-1.06,1.59.53,2.13,1.06,2.13,2.11s-.54,1.58-1.06,1.58c-1.07.53-1.59.53-2.11,0a2.76,2.76,0,0,1-2.12-1A1,1,0,0,1,422.51,549.52Zm23.2-1.06c1.58,0,2.64.53,2.64,1.58a2.68,2.68,0,0,1-2.1,2.64h-2.12c-.52,0-1-1-1-2.11S443.61,549,445.71,548.46Zm34.81-202A138.2,138.2,0,0,1,547,363.38c20,11.6,36.39,26.9,48,45.88a130.21,130.21,0,0,1,17.91,65.91c0,29.53-8.42,55.37-24.78,78.57s-37.43,39-63.79,47.45c-3.18,1.06-5.28.53-6.86-1.05-1.58-1.06-2.1-3.17-2.1-5.27v-44.3c0-11.07-3.17-19-9-24.25,12.65-1.06,22.68-3.17,29-5.28,9.49-3.16,17.4-8.43,22.68-15.81,5.79-9,9-21.62,9-37.44a46.57,46.57,0,0,0-3.69-17.4,106.41,106.41,0,0,0-10-13.19,57.44,57.44,0,0,0,2.64-12.65,73.84,73.84,0,0,0-3.68-23.2c-3.71-1.06-8.45,0-14.78,2.11-4.22,2.11-9.48,4.22-14.77,7.38l-6.84,4.75a121.07,121.07,0,0,0-33.75-4.75,111.17,111.17,0,0,0-32.69,4.75l-6.86-4.75c-5.81-3.16-11.07-5.27-15.29-7.38-6.33-2.11-11.07-3.17-14.24-2.11-3.16,7.91-4.74,15.82-3.68,23.2,0,5.27.52,9,2.1,12.13A83.93,83.93,0,0,0,402,451.44c-2.13,4.22-2.65,10-2.65,16.35,0,15.82,2.65,28.47,8.45,36.91,4.74,7.38,12.11,13.18,22.14,16.34,6.32,2.11,15.81,4.22,28.48,5.28-4.76,4.22-7.39,10.54-8.45,17.93-6.32,3.16-12.13,4.21-17.39,3.16-9.49-.53-16.35-5.27-21.1-14.24a36.37,36.37,0,0,0-8.44-9.49c-2.63-1-5.27-2.64-7.91-3.69l-3.68-.53c-4.23,0-6.33,1.06-6.33,2.11a4.16,4.16,0,0,0,2.62,3.69l2.65,2.11a41.41,41.41,0,0,1,7.38,6.86,45.77,45.77,0,0,1,5.27,8.43l2.12,4.22a19.08,19.08,0,0,0,10,12.13,32.72,32.72,0,0,0,15.29,4.75,37.78,37.78,0,0,0,13.19-.53l5.8-.53.52,32.17a6.51,6.51,0,0,1-2.64,5.27c-1.58,1.58-3.68,2.11-6.32,1.05q-40.32-12.65-64.86-47.45c-16.87-23.2-24.78-49-24.78-78.57,0-23.73,5.27-45.35,16.88-65.39,11.07-19.5,26.36-34.8,46.4-46.4C434.12,352.31,456.26,346.51,480.52,346.51Zm-78,181.92c.52-.53,1.58-.53,2.64.52s1,2.11.52,2.64c-1.06,1.06-1.58.53-2.64-.53S401.42,529.48,402.48,528.43Zm-5.81-4.22a2.35,2.35,0,0,1,2.64,0c1.06.52,1.06,1,1.06,2.11-.54,1-1.58,1-2.64,0C396.67,525.79,396.15,525.26,396.67,524.21Zm17.42,18.45h1.58c.52,0,1,.53,1.58,1.06s1,1,1,1.58v1.58a2.24,2.24,0,0,1-3.68-.53c-1.06-.52-1.06-1.05-1.06-2.1A1.92,1.92,0,0,1,414.09,542.66Zm-6.33-7.38h1.58c.52,0,1,.53,1.58,1.06q1.56,2.37,0,3.16a1,1,0,0,1-1.58,0c-.54,0-1.06-.53-1.58-1C406.7,536.86,406.7,535.81,407.76,535.28Z"/></g></g></svg>