<svg xmlns="http://www.w3.org/2000/svg" viewBox="0 0 712.47 712.47"><defs><style>.cls-1,.cls-2{fill:#fff;}.cls-1{opacity:0.1;isolation:isolate;}</style></defs><title>Asset 1</title><g id="Layer_2" data-name="Layer 2"><g id="Layer_1-2" data-name="Layer 1"><path class="cls-1" d="M356.24,0h0C553,0,712.47,159.49,712.47,356.24h0C712.47,553,553,712.47,356.24,712.47h0C159.49,712.47,0,553,0,356.24H0C0,159.49,159.49,0,356.24,0Z"/><path class="cls-2" d="M363.66,320.69c8.12,0,15.83,2.44,23.13,6.5a43.07,43.07,0,0,1,17,17c4.06,7.31,6.49,15,6.49,23.14a47.72,47.72,0,0,1-6.49,23.54,43.09,43.09,0,0,1-17,17,47.82,47.82,0,0,1-46.67,0,43.09,43.09,0,0,1-17.05-17,47.77,47.77,0,0,1,0-46.68,43.07,43.07,0,0,1,17.05-17A47.7,47.7,0,0,1,363.66,320.69Zm0,77.12a30.49,30.49,0,0,0,30.44-30.44c0-8.12-3.25-15.42-8.93-21.51-6.09-5.68-13.39-8.93-21.51-8.93a30.49,30.49,0,0,0-30.44,30.44c0,8.52,2.84,15.83,8.93,21.51C347.83,395,355.14,397.81,363.66,397.81Zm59.66-79.14c0-2.85-1.22-5.28-3.25-7.72-2.43-2-4.87-3.24-7.71-3.24a10.39,10.39,0,0,0-7.71,3.24,10.18,10.18,0,0,0-3.25,7.72c0,3.24.82,5.68,3.25,7.71,2,2.43,4.47,3.24,7.71,3.24a8.83,8.83,0,0,0,7.31-3.24A12.54,12.54,0,0,0,423.32,318.67Zm30.85,10.95c0,7.72.4,20.3.4,37.75,0,17.86-.4,30.44-.81,38.15a87.74,87.74,0,0,1-3.25,19.89,48,48,0,0,1-11.36,17.86,49,49,0,0,1-17.45,11,73,73,0,0,1-20.3,3.65c-7.71.4-20.29.4-37.74.4-17.86,0-30.44,0-38.15-.4s-14.21-1.63-19.89-4.06a41.89,41.89,0,0,1-17.86-10.55,47.29,47.29,0,0,1-11-17.86,69.65,69.65,0,0,1-3.65-19.89c-.41-7.71-.41-20.29-.41-38.15,0-17.45,0-30,.41-37.75a72.6,72.6,0,0,1,3.65-20.29,49,49,0,0,1,11-17.45,48.16,48.16,0,0,1,17.86-11.37,88.34,88.34,0,0,1,19.89-3.24c7.71-.41,20.29-.82,38.15-.82,17.45,0,30,.41,37.74.82a92.27,92.27,0,0,1,20.3,3.24,50.39,50.39,0,0,1,28.81,28.82A121.05,121.05,0,0,1,454.17,329.62Zm-19.48,91.32c1.62-4.46,2.43-11.77,3.24-21.91,0-5.69.41-14.21.41-25.17v-13c0-11-.41-19.49-.41-25.17-.81-10.15-1.62-17.45-3.24-21.92a30.81,30.81,0,0,0-17.46-17.45c-4.46-1.62-11.77-2.43-21.91-3.24-6.09,0-14.62-.41-25.17-.41h-13c-11,0-19.48.41-25.16.41-10.15.81-17.45,1.62-21.92,3.24a29.68,29.68,0,0,0-17.45,17.45c-1.62,4.47-2.84,11.77-3.25,21.92-.4,6.09-.4,14.61-.4,25.17v13c0,11,0,19.48.4,25.17.41,10.14,1.63,17.45,3.25,21.91a29.67,29.67,0,0,0,17.45,17.46c4.47,1.62,11.77,2.84,21.92,3.24,5.68.41,14.21.41,25.16.41h13c11,0,19.48,0,25.17-.41,10.14-.4,17.45-1.62,21.91-3.24A30.8,30.8,0,0,0,434.69,420.94Z"/></g></g></svg>