<svg xmlns="http://www.w3.org/2000/svg" viewBox="0 0 844.81 844.81"><defs><style>.cls-1,.cls-2{fill:#fff;}.cls-1{opacity:0.1;isolation:isolate;}</style></defs><title>Asset 2</title><g id="Layer_2" data-name="Layer 2"><g id="Layer_1-2" data-name="Layer 1"><path class="cls-1" d="M422.41,0h0c233.28,0,422.4,189.12,422.4,422.41h0c0,233.28-189.12,422.4-422.4,422.4h0C189.12,844.81,0,655.69,0,422.41H0C0,189.12,189.12,0,422.41,0Z"/><path class="cls-2" d="M537.7,385.55a111.13,111.13,0,0,0,25.51-26.47,93.26,93.26,0,0,1-28.89,8.19c10.6-6.74,18.29-15.89,22.15-27.92-10.11,5.78-20.7,10.11-32.25,12a57.92,57.92,0,0,0-16.84-11.54,47.58,47.58,0,0,0-20.21-4.34,49.93,49.93,0,0,0-25,6.74A52.5,52.5,0,0,0,443.86,361a54.47,54.47,0,0,0-5.77,36.58c-20.7-1-40-5.78-58.24-15.4a133.32,133.32,0,0,1-45.73-37.54,50.15,50.15,0,0,0-7.21,25.5,46.11,46.11,0,0,0,6.26,24.07c3.84,7.7,9.63,13.47,16.35,18.28a41.58,41.58,0,0,1-22.61-6.73v1a47.87,47.87,0,0,0,11.54,31.76,48.58,48.58,0,0,0,28.88,17.81,67.67,67.67,0,0,1-13.48,1.44,58.22,58.22,0,0,1-9.13-.48c2.88,10.11,8.66,18.29,17.32,25s18.28,9.62,29.85,9.62c-18.78,14.44-40,21.66-63.05,21.66a89.45,89.45,0,0,1-12-.48c23.1,15.4,49.09,22.62,77.48,22.62,29.36,0,55.35-7.22,78.44-22.62a136.5,136.5,0,0,0,48.62-54.38,143.68,143.68,0,0,0,16.84-66.9C538.18,388.92,537.7,387,537.7,385.55Z"/></g></g></svg>